Coordinates
version=1
nRows=32
nColumns=12
inDegrees=yes

Units are S.I. units (second, meters, Newtons, ...)
Angles are in degrees

endheader
time	SC_y	SC_z	SC_x	AC_y	AC_z	AC_x	GH_y	GH_z	GH_yy	EL_x	PS_y
       0.0              -47.49          20.73          49.14          40.49         -17.31          4.034          131.2          64.74          167.8          73.27          139.2
   0.03742              -47.49          20.72          49.14          40.49         -17.31          4.036          131.2          64.74          167.8          73.27          139.2
   0.07484              -47.49          20.72          49.13           40.5          -17.3          4.037          131.2          64.74          167.8          73.26          139.2
    0.1123              -47.48          20.72          49.13           40.5          -17.3          4.039          131.2          64.74          167.7          73.25          139.2
    0.1497              -47.48          20.72          49.13           40.5          -17.3          4.041          131.2          64.74          167.7          73.24          139.2
    0.1871              -47.48          20.72          49.13          40.51          -17.3          4.042          131.2          64.75          167.7          73.23          139.2
    0.2245              -47.48          20.71          49.13          40.51         -17.29          4.044          131.2          64.75          167.6          73.22          139.2
    0.2619              -47.48          20.71          49.13          40.52         -17.29          4.047          131.2          64.75          167.6          73.21          139.1
    0.2994              -47.47          20.71          49.12          40.52         -17.29          4.049          131.2          64.75          167.5           73.2          139.1
    0.3368              -47.47           20.7          49.12          40.53         -17.29          4.051          131.2          64.75          167.5          73.19          139.1
    0.3742              -47.47           20.7          49.12          40.54         -17.28          4.054          131.2          64.75          167.4          73.17          139.1
    0.4116              -47.47           20.7          49.12          40.54         -17.28          4.057          131.2          64.76          167.4          73.16          139.1
     0.449              -47.46          20.69          49.12          40.55         -17.27           4.06          131.2          64.76          167.3          73.14          139.1
    0.4864              -47.46          20.69          49.11          40.56         -17.27          4.063          131.2          64.76          167.2          73.13          139.1
    0.5239              -47.45          20.69          49.11          40.57         -17.27          4.067          131.2          64.76          167.2          73.11          139.0
    0.5613              -47.45          20.68          49.11          40.58         -17.26          4.071          131.2          64.77          167.1          73.09          139.0
    0.5987              -47.45          20.67           49.1          40.59         -17.26          4.075          131.2          64.77          167.0          73.07          139.0
    0.6361              -47.44          20.67           49.1           40.6         -17.25          4.079          131.2          64.77          166.9          73.05          139.0
    0.6735              -47.44          20.66           49.1          40.61         -17.24          4.084          131.2          64.78          166.8          73.02          139.0
     0.711              -47.43          20.66          49.09          40.63         -17.24           4.09          131.2          64.78          166.7          72.99          138.9
    0.7484              -47.42          20.65          49.09          40.64         -17.23          4.096          131.2          64.78          166.6          72.96          138.9
    0.7858              -47.42          20.64          49.08          40.66         -17.22          4.103          131.2          64.79          166.4          72.93          138.9
    0.8232              -47.41          20.63          49.08          40.68         -17.21           4.11          131.2          64.79          166.3          72.89          138.8
    0.8606               -47.4          20.62          49.07           40.7          -17.2          4.118          131.2           64.8          166.1          72.85          138.8
    0.8981              -47.39          20.61          49.06          40.72         -17.19          4.127          131.2          64.81          165.9          72.81          138.7
    0.9355              -47.38           20.6          49.05          40.75         -17.18          4.137          131.2          64.81          165.7          72.75          138.7
    0.9729              -47.37          20.58          49.04          40.78         -17.16          4.148          131.2          64.82          165.5           72.7          138.6
      1.01              -47.35          20.57          49.03          40.81         -17.14          4.161          131.2          64.83          165.3          72.63          138.6
     1.048              -47.34          20.55          49.02          40.84         -17.13          4.175          131.2          64.84          165.0          72.56          138.5
     1.085              -47.32          20.53          49.01          40.88         -17.11          4.192          131.3          64.85          164.6          72.48          138.4
     1.123               -47.3           20.5          48.99          40.93         -17.08           4.21          131.3          64.86          164.2          72.38          138.3
      1.16              -47.28          20.48          48.98          40.99         -17.05          4.232          131.3          64.88          163.8          72.28          138.2
